# xmcd
#
# Track frame offsets:
# 150
# 23867
# 52248
# 71529
# 88646
# 108855
# 126072
# 143805
#
# Disc length: 2118 seconds
#
#
# Revision: 0
# Processed by: cddbd v1.5PL3 Copyright (c) Steve Scherf et al.
# Submitted via: FreeRIP 2.60 
#
DISCID=6b084408
DTITLE=David C. Johnson - Songs About You and Me
DYEAR=1900
DGENRE=Blues
TTITLE0=Maybe I Dream Too Much
TTITLE1=My Love
TTITLE2=Thinking Of You
TTITLE3=In the Night
TTITLE4=Vision
TTITLE5=Where Did Lisa Go?
TTITLE6=But It's Love
TTITLE7=Home
EXTD=
EXTT0=
EXTT1=
EXTT2=
EXTT3=
EXTT4=
EXTT5=
EXTT6=
EXTT7=
PLAYORDER=
